<?xml version="1.0" encoding="utf-8"?>
<!-- Generator: Adobe Illustrator 16.0.0, SVG Export Plug-In . SVG Version: 6.00 Build 0)  -->
<!DOCTYPE svg PUBLIC "-//W3C//DTD SVG 1.1//EN" "http://www.w3.org/Graphics/SVG/1.1/DTD/svg11.dtd">
<svg version="1.1" id="Layer_1" xmlns="http://www.w3.org/2000/svg" xmlns:xlink="http://www.w3.org/1999/xlink" x="0px" y="0px"
	 width="45.354px" height="55.605px" viewBox="0 0 45.354 55.605" enable-background="new 0 0 45.354 55.605" xml:space="preserve">
<g>
	
		<linearGradient id="SVGID_1_" gradientUnits="userSpaceOnUse" x1="-503.4065" y1="263.3562" x2="-508.993" y2="254.0469" gradientTransform="matrix(1 0 0 -1 539.04 298.9448)">
		<stop  offset="0" style="stop-color:#FFFFFF;stop-opacity:0"/>
		<stop  offset="1" style="stop-color:#B3B3B3"/>
	</linearGradient>
	<polygon fill="url(#SVGID_1_)" points="37.001,49.398 46.348,44.059 27.641,33.169 18.565,37.709 	"/>
	<path fill="#CCCCCC" d="M37.374,14.208v35.295l-10.488,6.104V32.33C26.886,32.33,26.785,21.337,37.374,14.208z"/>
	<path fill="#FFFFFF" d="M4.755,31.326L4.716,42.779l22.17,12.826V43.74v-0.029L4.773,30.898
		C4.757,31.164,4.755,31.326,4.755,31.326z"/>
	<g>
		<path fill="#CCCCCC" d="M4.773,20.219c-0.017,0.266-0.019,0.427-0.019,0.427L4.716,32.1l0.326,0.188l11.833-7.702L4.773,20.219z"
			/>
		<polygon fill="#F1F2F2" points="17.212,24.587 5.548,32.289 27.561,44.926 27.561,29.715 27.561,29.685 		"/>
	</g>
	<path fill="#FFB83B" d="M0.994,19.844l22.165,12.82c9.354-6,14.604-16.95,14.716-19.036L15.763,0.817
		C15.755,1.144,11.272,12.787,0.994,19.844z"/>
	<g>
		<path fill="#E6E6E6" d="M30.634,9.17c3.252,0,5.973,3.424,5.973,3.424c0.015,0.889-0.563,1.772-1.733,2.448
			c-2.326,1.343-6.104,1.335-8.448-0.015c-1.304-0.754-1.886-1.77-1.737-2.749C24.686,12.277,25.281,9.17,30.634,9.17z"/>
		<g>
			<path fill="#CCCCCC" d="M35.281,13.147c-3.458-1.076-6.906-4.823-7.703-8.375c-0.801-3.549,1.346-5.559,4.804-4.481
				c3.454,1.077,6.902,4.827,7.703,8.378C40.883,12.215,38.732,14.224,35.281,13.147z"/>
			
				<linearGradient id="SVGID_2_" gradientUnits="userSpaceOnUse" x1="-1057.5071" y1="276.5583" x2="-1059.7137" y2="272.8813" gradientTransform="matrix(0.6782 0.7349 0.7349 -0.6782 548.9288 974.8024)">
				<stop  offset="0" style="stop-color:#FFFFFF;stop-opacity:0"/>
				<stop  offset="1" style="stop-color:#B3B3B3"/>
			</linearGradient>
			<polygon fill="url(#SVGID_2_)" points="30.716,10.548 34.651,11.935 34.166,10.638 30.306,9.258 			"/>
			<path fill="#E6E6E6" d="M27.964,5.621c-0.063-0.901,0.167-1.633,0.676-2.106c0.646-0.595,1.654-0.712,2.848-0.341
				c1.22,0.381,2.479,1.225,3.543,2.381c1.081,1.171,1.833,2.51,2.117,3.774c0.277,1.24,0.08,2.25-0.567,2.846
				c-0.494,0.458-1.217,0.633-2.066,0.517c0.299,0.121,0.578,0.217,0.851,0.293c0.553-0.063,1.029-0.26,1.401-0.604
				c0.728-0.668,0.953-1.771,0.65-3.111c-0.291-1.313-1.068-2.696-2.18-3.901c-1.1-1.191-2.398-2.065-3.664-2.46
				c-1.29-0.4-2.402-0.26-3.117,0.401c-0.386,0.354-0.628,0.834-0.724,1.406C27.782,5.001,27.866,5.302,27.964,5.621z"/>
			<g>
				<path fill="#E6E6E6" d="M27.651,2.584c0.113-0.188,0.251-0.367,0.413-0.518c0.805-0.744,2.069-0.896,3.566-0.428
					c1.522,0.47,3.087,1.524,4.422,2.967c1.34,1.454,2.274,3.124,2.634,4.703c0.348,1.551,0.093,2.815-0.723,3.564
					c-0.152,0.146-0.336,0.26-0.525,0.361c0.224-0.017,0.421-0.038,0.604-0.067c0.033-0.034,0.076-0.058,0.111-0.092
					c0.886-0.819,1.174-2.177,0.801-3.832c-0.365-1.624-1.326-3.338-2.698-4.827c-1.36-1.477-2.976-2.56-4.54-3.046
					c-1.599-0.496-2.959-0.323-3.837,0.49c-0.04,0.036-0.073,0.076-0.104,0.113C27.727,2.158,27.68,2.358,27.651,2.584z"/>
			</g>
			<g>
				<g>
					<path fill="#F1F2F2" d="M30.078,9.055c-0.085,0.086-0.124,0.227-0.079,0.407c0.079,0.365,0.436,0.75,0.789,0.862
						c0.176,0.054,0.325,0.03,0.414-0.053l4.215-4.121l-0.891-0.965L30.078,9.055z"/>
					<path fill="#E6E6E6" d="M35.089,6.191c-0.281-0.089-0.563-0.394-0.629-0.682c-0.064-0.287,0.109-0.453,0.393-0.363
						c0.281,0.087,0.563,0.391,0.625,0.679C35.542,6.118,35.366,6.278,35.089,6.191z"/>
				</g>
				<circle fill="#FFB83B" cx="35.428" cy="5.247" r="0.763"/>
				<path fill="#F1F2F2" d="M39.124,12.824c0,0-3.539,2.065-8.685-2.95c-4.588-5.534-2.245-8.9-2.245-8.9
					c-1.89,1.744-1.58,7.791,0.448,10.115v0.001h0.008l0.002,0.007v-0.004C30.803,13.304,37.24,14.565,39.124,12.824z"/>
			</g>
		</g>
	</g>
	<g>
		<path fill="#FFB83B" d="M9.304,41.271c0,0.427-0.135,0.684-0.4,0.768c-0.27,0.083-0.635-0.007-1.095-0.271
			c-0.497-0.289-0.882-0.584-1.152-0.89l0.003-0.544c0.172,0.184,0.358,0.358,0.563,0.524c0.203,0.165,0.404,0.307,0.604,0.422
			c0.324,0.188,0.568,0.258,0.736,0.211c0.166-0.047,0.248-0.199,0.245-0.453c0.003-0.169-0.027-0.324-0.087-0.465
			c-0.059-0.143-0.153-0.297-0.294-0.467c-0.136-0.17-0.345-0.394-0.626-0.67c-0.391-0.389-0.671-0.742-0.84-1.062
			c-0.166-0.317-0.25-0.656-0.25-1.012c0-0.375,0.123-0.604,0.363-0.686c0.247-0.078,0.567-0.003,0.969,0.229
			c0.42,0.24,0.803,0.551,1.153,0.932l-0.152,0.403c-0.346-0.368-0.686-0.646-1.011-0.837c-0.259-0.15-0.462-0.203-0.608-0.158
			c-0.144,0.045-0.217,0.18-0.217,0.409c0,0.169,0.025,0.321,0.08,0.46c0.052,0.139,0.143,0.289,0.27,0.453
			c0.131,0.164,0.324,0.375,0.588,0.635c0.441,0.438,0.744,0.808,0.91,1.111C9.222,40.619,9.304,40.938,9.304,41.271z"/>
		<path fill="#FFB83B" d="M11.46,43.808l-0.487-0.283v-4.356l-1.332-0.77v-0.502l3.154,1.82l-0.003,0.501l-1.332-0.768V43.808z"/>
		<path fill="#FFB83B" d="M17.079,44.614c0,0.778-0.17,1.292-0.51,1.541c-0.341,0.248-0.814,0.198-1.42-0.152
			c-0.62-0.357-1.103-0.853-1.438-1.484c-0.336-0.633-0.506-1.349-0.504-2.146c-0.002-0.791,0.171-1.307,0.508-1.547
			s0.817-0.182,1.438,0.178c0.604,0.35,1.074,0.845,1.416,1.481C16.909,43.125,17.079,43.835,17.079,44.614z M13.727,42.679
			c0,0.658,0.121,1.228,0.361,1.708c0.245,0.479,0.598,0.854,1.059,1.119c0.468,0.271,0.818,0.304,1.058,0.103
			c0.237-0.201,0.358-0.632,0.354-1.293c0-0.653-0.117-1.218-0.354-1.692c-0.237-0.475-0.588-0.846-1.052-1.114
			c-0.469-0.269-0.82-0.303-1.065-0.104C13.848,41.605,13.727,42.029,13.727,42.679z"/>
		<path fill="#FFB83B" d="M18.508,45.855v2.021l-0.489-0.284v-4.857l1.153,0.668c0.518,0.298,0.897,0.632,1.146,1.002
			c0.247,0.372,0.367,0.784,0.367,1.243c0,0.643-0.28,0.915-0.846,0.813l1.143,2.845l-0.574-0.334l-1.021-2.609L18.508,45.855z
			 M18.507,45.369l0.673,0.389c0.343,0.199,0.598,0.267,0.759,0.2c0.16-0.064,0.242-0.257,0.242-0.573
			c0-0.32-0.082-0.601-0.247-0.837c-0.163-0.236-0.429-0.46-0.792-0.669l-0.634-0.366L18.507,45.369z"/>
		<path fill="#FFB83B" d="M24.009,51.052l-2.348-1.355l0.002-4.858l2.346,1.354l-0.001,0.502l-1.855-1.073v1.566l1.743,1.008v0.498
			l-1.743-1.008v1.788l1.856,1.071V51.052z"/>
	</g>
</g>
</svg>
