<?xml version="1.0" encoding="utf-8"?>
<!-- Generator: Adobe Illustrator 16.0.0, SVG Export Plug-In . SVG Version: 6.00 Build 0)  -->
<!DOCTYPE svg PUBLIC "-//W3C//DTD SVG 1.1//EN" "http://www.w3.org/Graphics/SVG/1.1/DTD/svg11.dtd">
<svg version="1.1" id="Layer_1" xmlns="http://www.w3.org/2000/svg" xmlns:xlink="http://www.w3.org/1999/xlink" x="0px" y="0px"
	 width="45.354px" height="55.605px" viewBox="0 0 45.354 55.605" enable-background="new 0 0 45.354 55.605" xml:space="preserve">
<g>
	<g>
		
			<linearGradient id="SVGID_1_" gradientUnits="userSpaceOnUse" x1="-1043.4417" y1="574.2126" x2="-1049.0272" y2="583.5205" gradientTransform="matrix(1 0 0 1 1078.0801 -538.7148)">
			<stop  offset="0" style="stop-color:#FFFFFF;stop-opacity:0"/>
			<stop  offset="1" style="stop-color:#B3B3B3;stop-opacity:0.8"/>
		</linearGradient>
		<polygon fill="url(#SVGID_1_)" points="36.007,49.305 45.354,43.965 26.647,33.076 17.573,37.615 		"/>
		<g>
			<path fill="#CCCCCC" d="M36.38,14.114V49.41l-10.486,6.104V32.236C25.894,32.236,25.792,21.244,36.38,14.114z"/>
			<path fill="#EE5437" d="M36.425,14.067L14.258,1.247c-9.354,6-10.37,15.61-10.479,17.696l22.114,12.811
				C25.899,31.427,26.146,21.124,36.425,14.067z"/>
			<path fill="#FFFFFF" d="M3.761,19.369L3.722,42.686l22.171,12.826V31.783v-0.029L3.781,18.943
				C3.763,19.207,3.761,19.369,3.761,19.369z"/>
			<g>
				<path fill="#E6E6E6" d="M26.386,9.264c3.252,0,5.975,3.424,5.975,3.424c0.016,0.887-0.564,1.771-1.732,2.445
					c-2.328,1.345-6.104,1.335-8.449-0.015c-1.305-0.755-1.885-1.769-1.738-2.75C20.439,12.371,21.033,9.264,26.386,9.264z"/>
				<g>
					<path fill="#CCCCCC" d="M31.032,13.241c-3.455-1.076-6.903-4.823-7.702-8.375c-0.803-3.549,1.348-5.558,4.804-4.481
						c3.455,1.077,6.902,4.826,7.703,8.379C36.634,12.309,34.483,14.317,31.032,13.241z"/>
					
						<linearGradient id="SVGID_2_" gradientUnits="userSpaceOnUse" x1="-1529.429" y1="185.283" x2="-1531.635" y2="188.959" gradientTransform="matrix(0.6782 0.7349 -0.7349 0.6782 1204.1448 1008.4935)">
						<stop  offset="0" style="stop-color:#FFFFFF;stop-opacity:0"/>
						<stop  offset="1" style="stop-color:#B3B3B3"/>
					</linearGradient>
					<polygon fill="url(#SVGID_2_)" points="26.468,10.642 30.403,12.029 29.919,10.732 26.06,9.351 					"/>
					<path fill="#E6E6E6" d="M23.717,5.714c-0.063-0.898,0.166-1.632,0.676-2.105c0.646-0.593,1.653-0.711,2.849-0.339
						c1.219,0.378,2.48,1.224,3.543,2.379c1.082,1.171,1.834,2.51,2.115,3.774c0.277,1.239,0.08,2.249-0.568,2.847
						c-0.492,0.458-1.213,0.633-2.064,0.516c0.299,0.121,0.58,0.217,0.854,0.293c0.553-0.062,1.027-0.26,1.398-0.604
						c0.729-0.668,0.953-1.772,0.652-3.112c-0.291-1.313-1.07-2.696-2.184-3.901C29.89,4.269,28.59,3.395,27.326,3
						c-1.293-0.397-2.403-0.26-3.118,0.402C23.82,3.759,23.58,4.238,23.484,4.81C23.537,5.094,23.619,5.396,23.717,5.714z"/>
					<g>
						<path fill="#E6E6E6" d="M23.402,2.677c0.115-0.188,0.252-0.366,0.414-0.518c0.807-0.745,2.069-0.895,3.565-0.427
							c1.521,0.469,3.09,1.522,4.424,2.966c1.34,1.453,2.273,3.125,2.633,4.703c0.348,1.552,0.094,2.814-0.721,3.564
							c-0.154,0.146-0.338,0.262-0.525,0.361c0.223-0.016,0.42-0.038,0.604-0.066c0.035-0.033,0.076-0.059,0.113-0.092
							c0.885-0.818,1.172-2.177,0.799-3.832c-0.363-1.624-1.326-3.338-2.699-4.828c-1.359-1.477-2.975-2.56-4.539-3.045
							c-1.6-0.496-2.958-0.32-3.837,0.49c-0.037,0.036-0.07,0.075-0.104,0.113C23.48,2.252,23.432,2.452,23.402,2.677z"/>
					</g>
					<g>
						<g>
							<path fill="#F1F2F2" d="M25.829,9.148c-0.084,0.085-0.123,0.228-0.076,0.409c0.076,0.362,0.434,0.75,0.787,0.859
								c0.176,0.057,0.326,0.031,0.416-0.053l4.215-4.12l-0.891-0.966L25.829,9.148z"/>
							<path fill="#E6E6E6" d="M30.841,6.285c-0.281-0.089-0.561-0.393-0.627-0.68C30.148,5.316,30.32,5.15,30.607,5.24
								c0.279,0.086,0.563,0.391,0.623,0.678C31.296,6.211,31.118,6.372,30.841,6.285z"/>
						</g>
						<path fill="#FFB83B" d="M31.696,5.901c-0.311,0.285-0.787,0.266-1.074-0.045c-0.287-0.312-0.268-0.792,0.045-1.077
							c0.305-0.288,0.787-0.271,1.076,0.042C32.026,5.132,32.007,5.613,31.696,5.901z"/>
						<path fill="#F1F2F2" d="M34.878,12.917c0,0-3.541,2.065-8.688-2.95c-4.587-5.532-2.241-8.898-2.241-8.898
							c-1.891,1.744-1.583,7.791,0.445,10.116v0.001h0.006l0.006,0.006v-0.003C26.558,13.397,32.991,14.659,34.878,12.917z"/>
					</g>
				</g>
			</g>
			<g>
				<path fill="#EE5437" d="M10.588,36.164L7.64,34.463l-0.662,1.68l-0.549-0.314l2.443-5.979l0.499,0.29l2.43,8.786l-0.55-0.316
					L10.588,36.164z M7.816,34.023l2.599,1.501l-1.279-4.739l-0.03-0.016L7.816,34.023z"/>
				<path fill="#EE5437" d="M13.31,36.73v3.064l-0.521-0.301v-7.391L15,33.385c0.679,0.392,1.198,0.891,1.569,1.497
					c0.366,0.607,0.555,1.234,0.555,1.887c0,0.656-0.188,1.074-0.555,1.252c-0.371,0.182-0.895,0.07-1.569-0.316L13.31,36.73z
					 M13.31,36.211L15,37.188c0.526,0.305,0.927,0.381,1.198,0.225c0.266-0.152,0.397-0.469,0.397-0.938
					c0-0.475-0.13-0.942-0.397-1.408C15.933,34.6,15.536,34.213,15,33.905l-1.69-0.973V36.211z"/>
				<path fill="#EE5437" d="M18.916,39.963v3.072L18.39,42.73V35.34l2.216,1.281c0.676,0.389,1.196,0.885,1.568,1.496
					c0.37,0.605,0.557,1.236,0.557,1.885c0,0.654-0.187,1.074-0.557,1.252c-0.372,0.18-0.896,0.072-1.568-0.314L18.916,39.963z
					 M18.916,39.445l1.688,0.977c0.533,0.309,0.924,0.381,1.193,0.227c0.271-0.154,0.402-0.467,0.402-0.938
					c0-0.475-0.133-0.941-0.399-1.408c-0.261-0.469-0.663-0.854-1.196-1.16l-1.688-0.979V39.445z"/>
			</g>
		</g>
	</g>
</g>
</svg>
