<?xml version="1.0" encoding="utf-8"?>
<!-- Generator: Adobe Illustrator 16.0.0, SVG Export Plug-In . SVG Version: 6.00 Build 0)  -->
<!DOCTYPE svg PUBLIC "-//W3C//DTD SVG 1.1//EN" "http://www.w3.org/Graphics/SVG/1.1/DTD/svg11.dtd">
<svg version="1.1" id="Layer_1" xmlns="http://www.w3.org/2000/svg" xmlns:xlink="http://www.w3.org/1999/xlink" x="0px" y="0px"
	 width="45.354px" height="55.605px" viewBox="0 0 45.354 55.605" enable-background="new 0 0 45.354 55.605" xml:space="preserve">
<g>
	<g>
		
			<linearGradient id="SVGID_1_" gradientUnits="userSpaceOnUse" x1="-504.4016" y1="263.447" x2="-509.9869" y2="254.1396" gradientTransform="matrix(1 0 0 -1 539.04 298.9448)">
			<stop  offset="0" style="stop-color:#FFFFFF;stop-opacity:0"/>
			<stop  offset="1" style="stop-color:#B3B3B3;stop-opacity:0.8"/>
		</linearGradient>
		<polygon fill="url(#SVGID_1_)" points="36.007,49.305 45.354,43.965 26.647,33.076 17.573,37.615 		"/>
		<g>
			<path fill="#CCCCCC" d="M36.38,14.114V49.41l-10.486,6.103V32.236C25.894,32.236,25.792,21.244,36.38,14.114z"/>
			<path fill="#1CB5EA" d="M36.425,14.067L14.258,1.247c-9.354,6-10.37,15.61-10.479,17.696l22.114,12.811
				C25.899,31.427,26.146,21.124,36.425,14.067z"/>
			<path fill="#FFFFFF" d="M3.761,19.369L3.722,42.686l22.171,12.826V31.783v-0.029L3.781,18.943
				C3.763,19.207,3.761,19.369,3.761,19.369z"/>
			<g>
				<path fill="#E6E6E6" d="M26.386,9.264c3.252,0,5.975,3.424,5.975,3.424c0.015,0.887-0.565,1.771-1.733,2.446
					c-2.328,1.344-6.104,1.335-8.449-0.015c-1.305-0.755-1.885-1.769-1.738-2.75C20.439,12.371,21.033,9.264,26.386,9.264z"/>
				<g>
					<path fill="#CCCCCC" d="M31.032,13.241c-3.455-1.076-6.903-4.823-7.702-8.375c-0.802-3.549,1.348-5.558,4.804-4.481
						c3.455,1.077,6.902,4.826,7.703,8.378C36.634,12.309,34.483,14.317,31.032,13.241z"/>
					
						<linearGradient id="SVGID_2_" gradientUnits="userSpaceOnUse" x1="-1060.3191" y1="273.3718" x2="-1062.5251" y2="269.6957" gradientTransform="matrix(0.6782 0.7349 0.7349 -0.6782 548.9288 974.8024)">
						<stop  offset="0" style="stop-color:#FFFFFF;stop-opacity:0"/>
						<stop  offset="1" style="stop-color:#B3B3B3"/>
					</linearGradient>
					<polygon fill="url(#SVGID_2_)" points="26.468,10.642 30.403,12.029 29.919,10.732 26.06,9.351 					"/>
					<path fill="#E6E6E6" d="M23.717,5.714c-0.063-0.899,0.166-1.632,0.676-2.106c0.646-0.593,1.653-0.711,2.848-0.339
						c1.219,0.378,2.481,1.224,3.543,2.379c1.082,1.171,1.834,2.51,2.116,3.775c0.277,1.239,0.08,2.249-0.569,2.846
						c-0.492,0.458-1.213,0.633-2.064,0.516c0.299,0.121,0.58,0.217,0.853,0.293c0.553-0.062,1.028-0.26,1.399-0.604
						c0.728-0.668,0.953-1.772,0.652-3.112c-0.291-1.313-1.07-2.696-2.183-3.901C29.89,4.269,28.59,3.395,27.326,3
						c-1.293-0.398-2.403-0.26-3.118,0.402C23.82,3.759,23.58,4.238,23.484,4.81C23.537,5.094,23.619,5.396,23.717,5.714z"/>
					<g>
						<path fill="#E6E6E6" d="M23.402,2.677c0.115-0.188,0.252-0.367,0.414-0.518c0.806-0.745,2.069-0.895,3.565-0.427
							c1.522,0.469,3.09,1.523,4.424,2.966c1.34,1.453,2.273,3.125,2.633,4.703c0.347,1.552,0.093,2.815-0.721,3.565
							c-0.154,0.146-0.338,0.261-0.525,0.361c0.222-0.016,0.42-0.038,0.603-0.066c0.035-0.034,0.076-0.059,0.113-0.092
							c0.885-0.819,1.172-2.177,0.799-3.832c-0.363-1.624-1.326-3.338-2.699-4.828c-1.359-1.477-2.975-2.56-4.539-3.045
							c-1.6-0.496-2.958-0.321-3.837,0.49c-0.037,0.036-0.07,0.075-0.104,0.113C23.48,2.252,23.432,2.452,23.402,2.677z"/>
					</g>
					<g>
						<g>
							<path fill="#F1F2F2" d="M25.829,9.148c-0.084,0.085-0.123,0.228-0.076,0.409c0.076,0.363,0.434,0.75,0.787,0.86
								c0.176,0.056,0.326,0.031,0.416-0.053l4.215-4.12l-0.891-0.966L25.829,9.148z"/>
							<path fill="#E6E6E6" d="M30.841,6.285c-0.281-0.089-0.561-0.393-0.627-0.68c-0.066-0.289,0.106-0.455,0.393-0.365
								c0.279,0.086,0.562,0.391,0.623,0.678C31.296,6.211,31.118,6.372,30.841,6.285z"/>
						</g>
						<path fill="#FFB83B" d="M31.696,5.901c-0.311,0.285-0.788,0.266-1.075-0.045s-0.267-0.792,0.045-1.077
							c0.305-0.288,0.787-0.27,1.076,0.042C32.026,5.132,32.007,5.613,31.696,5.901z"/>
						<path fill="#F1F2F2" d="M34.878,12.917c0,0-3.541,2.065-8.687-2.95c-4.587-5.533-2.242-8.899-2.242-8.899
							c-1.89,1.744-1.583,7.791,0.446,10.116v0.001h0.006l0.005,0.006v-0.003C26.558,13.397,32.991,14.659,34.878,12.917z"/>
					</g>
				</g>
			</g>
			<g>
				<path fill="#1CB5EA" d="M10.588,36.164L7.64,34.463l-0.662,1.679l-0.549-0.314l2.443-5.979l0.499,0.29l2.43,8.787l-0.55-0.317
					L10.588,36.164z M7.816,34.023l2.598,1.501l-1.279-4.739l-0.03-0.016L7.816,34.023z"/>
				<path fill="#1CB5EA" d="M13.31,36.73v3.065l-0.521-0.301v-7.391L15,33.385c0.679,0.391,1.198,0.89,1.57,1.497
					c0.366,0.607,0.554,1.234,0.554,1.886c0,0.657-0.188,1.075-0.554,1.252c-0.372,0.182-0.895,0.071-1.57-0.316L13.31,36.73z
					 M13.31,36.211L15,37.188c0.527,0.305,0.927,0.381,1.198,0.225c0.266-0.152,0.398-0.469,0.398-0.938
					c0-0.474-0.13-0.942-0.398-1.408c-0.265-0.467-0.662-0.854-1.198-1.162l-1.69-0.973V36.211z"/>
				<path fill="#1CB5EA" d="M18.916,39.963v3.072L18.39,42.73v-7.39l2.216,1.281c0.675,0.389,1.196,0.885,1.568,1.496
					c0.37,0.605,0.557,1.236,0.557,1.885c0,0.654-0.187,1.074-0.557,1.252c-0.372,0.179-0.896,0.072-1.568-0.315L18.916,39.963z
					 M18.916,39.445l1.688,0.977c0.533,0.308,0.924,0.381,1.193,0.226c0.271-0.154,0.402-0.467,0.402-0.938
					c0-0.475-0.132-0.942-0.399-1.408c-0.261-0.469-0.663-0.854-1.196-1.161l-1.688-0.978V39.445z"/>
			</g>
		</g>
	</g>
</g>
</svg>
