<?xml version="1.0" encoding="utf-8"?>
<!-- Generator: Adobe Illustrator 16.0.0, SVG Export Plug-In . SVG Version: 6.00 Build 0)  -->
<!DOCTYPE svg PUBLIC "-//W3C//DTD SVG 1.1//EN" "http://www.w3.org/Graphics/SVG/1.1/DTD/svg11.dtd">
<svg version="1.1" id="Layer_1" xmlns="http://www.w3.org/2000/svg" xmlns:xlink="http://www.w3.org/1999/xlink" x="0px" y="0px"
	 width="18.113px" height="31.226px" viewBox="0 0 18.113 31.226" enable-background="new 0 0 18.113 31.226" xml:space="preserve">
<g>
	<path fill="#FFFFFF" d="M12.21,20.036c0-0.231,0-6.51,5-10.688v18.839l-5,3.038V20.036z"/>
	<polygon fill="#FFFFFF" points="0,24.285 -0.05,11.492 11.21,18.054 11.21,30.85 	"/>
	<g>
		<path fill="#FFFFFF" d="M10.946,3.123c-0.026-0.092-0.05-0.183-0.07-0.271C10.896,2.94,10.92,3.03,10.946,3.123z"/>
		<path fill="#FFFFFF" d="M15.983,7.068c0.375-0.347,0.492-0.933,0.33-1.653c-0.143-0.633-0.535-1.296-1.026-1.901
			c-0.008,0.02-0.077,0.041-0.077,0.054v0.001l-2.396,2.392c-0.037,0.035-0.069,0.044-0.132,0.04
			c0.77,0.696,1.483,1.117,2.101,1.366C15.272,7.432,15.696,7.331,15.983,7.068z"/>
		<path fill="#FFFFFF" d="M15.21,3.01c0-0.014-0.172-0.021-0.15-0.027c-0.564-0.548-1.308-0.949-1.93-1.142
			c-0.691-0.215-1.33-0.146-1.701,0.198c-0.293,0.273-0.451,0.693-0.42,1.208c0.199,0.629,0.545,1.352,1.164,2.161
			c0.003-0.063,0.219-0.118,0.252-0.152l2.785-2.247V3.01z"/>
		<path fill="#FFFFFF" d="M18.017,5.031c-0.463-2.062-2.465-4.237-4.471-4.863c-1.152-0.36-2.053-0.124-2.523,0.531
			c-0.141,0.305-0.373,1.007-0.174,2.026c0.059-0.326,0.199-0.602,0.418-0.805c0.418-0.383,1.059-0.465,1.809-0.232
			c0.736,0.229,1.49,0.736,2.129,1.427C15.849,3.814,16.3,4.618,16.47,5.38c0.176,0.778,0.043,1.418-0.378,1.806
			c-0.216,0.198-0.489,0.312-0.809,0.349c0.99,0.278,1.7,0.106,2.017-0.012C17.983,7.101,18.284,6.215,18.017,5.031z M16.897,7.59
			c-0.02,0.02-0.045,0.034-0.066,0.053c-0.105,0.017-0.221,0.031-0.349,0.039c0.11-0.058,0.214-0.125,0.306-0.209
			c0.473-0.436,0.621-1.17,0.418-2.07c-0.207-0.916-0.75-1.885-1.529-2.729c-0.773-0.836-1.684-1.449-2.564-1.723
			c-0.869-0.271-1.604-0.183-2.07,0.25c-0.096,0.086-0.174,0.19-0.242,0.299c0.02-0.131,0.045-0.247,0.072-0.352
			c0.021-0.022,0.04-0.045,0.063-0.066c0.511-0.472,1.299-0.572,2.224-0.285c0.909,0.283,1.847,0.911,2.636,1.768
			c0.799,0.865,1.355,1.86,1.568,2.803C17.579,6.326,17.413,7.115,16.897,7.59z"/>
	</g>
	<g>
		<path fill="#FFFFFF" d="M16.097,7.679l-0.133-0.077c-0.006,0.021-0.02,0.042-0.025,0.063C15.992,7.671,16.045,7.676,16.097,7.679z
			"/>
		<path fill="#FFFFFF" d="M15.841,7.916c-0.158,0.298-0.441,0.58-0.848,0.815c-1.348,0.779-3.545,0.774-4.902-0.009
			C9.333,8.284,8.995,7.695,9.08,7.126c0,0,0.216-1.091,1.774-1.575c-0.143-0.325-0.252-0.699-0.332-1.096L5.521,1.563
			C1.247,4.519,0.38,8.9,0.204,10.523l11.414,6.61c0.324-1.948,1.449-5.827,5.358-8.945l-0.558-0.323
			C16.235,7.893,16.045,7.911,15.841,7.916z"/>
	</g>
</g>
</svg>
