<?xml version="1.0" encoding="utf-8"?>
<!-- Generator: Adobe Illustrator 16.0.0, SVG Export Plug-In . SVG Version: 6.00 Build 0)  -->
<!DOCTYPE svg PUBLIC "-//W3C//DTD SVG 1.1//EN" "http://www.w3.org/Graphics/SVG/1.1/DTD/svg11.dtd">
<svg version="1.1" id="Layer_1" xmlns="http://www.w3.org/2000/svg" xmlns:xlink="http://www.w3.org/1999/xlink" x="0px" y="0px"
	 width="95.801px" height="45.393px" viewBox="0 0 95.801 45.393" enable-background="new 0 0 95.801 45.393" xml:space="preserve">
<g>
	<g>
		<g>
			<path fill="#FFFFFF" d="M50.744,11.115h7.68L46.499,34.178L34.607,11.115h7.673l4.218,9.701L50.744,11.115z"/>
			<path fill="#FFFFFF" d="M79.254,22.747c0,6.341-5.156,11.528-11.531,11.528c-6.371,0-11.531-5.188-11.531-11.528
				c0-6.376,5.16-11.534,11.531-11.534C74.098,11.213,79.254,16.371,79.254,22.747z M72.689,22.747c0-2.98-2.338-5.287-4.967-5.287
				c-2.627,0-4.965,2.307-4.965,5.287c0,3.138,2.338,5.251,4.965,5.251C70.352,27.998,72.689,25.885,72.689,22.747z"/>
			<path fill="#FFFFFF" d="M95.801,16.637h-5V34.24h-6.66V16.637h-4.969v-5.521h4.969h6.66h5V16.637z"/>
		</g>
		<path fill="#FFFFFF" d="M22.18,15.99l6.609-6.616c0.454-0.354,0.842-0.771,1.154-1.249c1.453-2.007,1.282-4.818-0.523-6.626
			C28.418,0.5,27.107,0,25.792,0C25.3,0,24.806,0.067,24.33,0.209H5.261c-2.834,0-5.13,2.294-5.13,5.125
			c0,2.83,2.296,5.126,5.13,5.126h7.947l-5.451,5.452c-0.181,0.183-0.341,0.371-0.484,0.567c-0.774,0.962-1.114,2.25-0.999,3.521
			c0,0.012,0,0.021,0,0.035c0.069,0.652,0.25,1.304,0.561,1.896c0.23,0.444,0.528,0.836,0.874,1.175
			c0.014,0.019,0.03,0.034,0.049,0.053c0.997,1,2.311,1.501,3.623,1.501c1.091,0,2.183-0.354,3.1-1.046
			c0.378,0.014,0.699,0.104,1.214,0.104c3.418,0,5.941,2.776,5.941,6.192c0,3.414-2.78,6.19-6.193,6.19
			c-3.2,0-5.91-2.491-6.17-5.672c-0.196-2.387-2.23-4.26-4.627-4.26c-0.128,0-0.26,0.003-0.386,0.014
			c-1.234,0.107-2.355,0.685-3.156,1.63c-0.804,0.945-1.189,2.15-1.09,3.39C0.671,39.159,7.449,45.39,15.442,45.39
			c8.534,0,15.478-6.939,15.478-15.477C30.918,23.797,27.347,18.499,22.18,15.99z M14.286,22.444
			c-0.777,0.778-1.808,1.204-2.905,1.204c-1.097,0-2.13-0.426-2.907-1.204c-1.603-1.603-1.603-4.209,0-5.812L22.888,2.217
			c0.774-0.775,1.811-1.202,2.905-1.202c1.1,0,2.131,0.426,2.905,1.202c1.601,1.604,1.601,4.21,0,5.812L14.286,22.444z M5.261,9.445
			c-2.268,0-4.107-1.844-4.107-4.107c0-2.267,1.84-4.108,4.107-4.108H22.47c-0.102,0.088-0.204,0.179-0.304,0.272l-7.944,7.943
			H5.261z M15.441,44.377c-7.468,0-13.795-5.824-14.409-13.261c-0.081-0.968,0.218-1.901,0.845-2.646
			c0.63-0.738,1.502-1.188,2.466-1.271c0.099-0.005,0.202-0.015,0.302-0.015c1.87,0,3.457,1.463,3.611,3.329
			c0.309,3.704,3.461,6.607,7.186,6.607c3.976,0,7.211-3.235,7.211-7.212c0-4.045-3.054-7.21-6.959-7.21
			c-0.078,0-0.15-0.008-0.222-0.013l5.943-5.94c5.003,2.274,8.486,7.317,8.486,13.164C29.901,37.891,23.415,44.377,15.441,44.377z"
			/>
		<g display="none">
			<path display="inline" fill="#FFFFFF" d="M41.264,40.514l0.329-0.026c0.012,0.129,0.051,0.233,0.104,0.321
				c0.06,0.082,0.145,0.149,0.265,0.2s0.252,0.079,0.399,0.079c0.132,0,0.254-0.022,0.35-0.062c0.103-0.036,0.179-0.093,0.228-0.159
				c0.048-0.07,0.07-0.146,0.07-0.229c0-0.079-0.022-0.154-0.069-0.212c-0.046-0.063-0.123-0.114-0.234-0.158
				c-0.069-0.022-0.223-0.064-0.463-0.125c-0.243-0.059-0.409-0.108-0.506-0.164c-0.123-0.063-0.218-0.146-0.281-0.239
				c-0.059-0.1-0.089-0.204-0.089-0.326c0-0.129,0.037-0.25,0.111-0.369c0.077-0.113,0.185-0.201,0.326-0.262
				c0.144-0.06,0.307-0.085,0.479-0.085c0.195,0,0.364,0.027,0.516,0.095c0.15,0.06,0.26,0.147,0.341,0.271
				c0.081,0.121,0.122,0.263,0.128,0.411l-0.33,0.024c-0.021-0.163-0.081-0.288-0.184-0.375c-0.101-0.082-0.257-0.121-0.455-0.121
				c-0.21,0-0.364,0.039-0.46,0.111c-0.093,0.073-0.144,0.17-0.144,0.272c0,0.097,0.035,0.172,0.102,0.232
				c0.069,0.063,0.243,0.125,0.523,0.188c0.279,0.063,0.477,0.121,0.578,0.166c0.152,0.066,0.264,0.158,0.337,0.271
				c0.075,0.104,0.109,0.227,0.109,0.364c0,0.143-0.042,0.271-0.121,0.396c-0.079,0.123-0.192,0.219-0.343,0.288
				c-0.146,0.063-0.315,0.102-0.502,0.102c-0.234,0-0.436-0.035-0.597-0.102c-0.156-0.071-0.283-0.174-0.372-0.314
				C41.316,40.846,41.27,40.688,41.264,40.514z"/>
			<path display="inline" fill="#FFFFFF" d="M44.919,41.354v-2.608h1.883v0.307h-1.541v0.801h1.446v0.308h-1.446v0.889h1.604v0.311
				h-1.946V41.354z"/>
			<path display="inline" fill="#FFFFFF" d="M49.102,41.354v-2.305h-0.854v-0.307h2.065v0.307h-0.864v2.305H49.102z"/>
			<path display="inline" fill="#FFFFFF" d="M52.428,41.354v-2.305h-0.861v-0.307h2.07v0.307h-0.865v2.305H52.428z"/>
			<path display="inline" fill="#FFFFFF" d="M55.143,41.354v-2.608h0.347v2.608H55.143z"/>
			<path display="inline" fill="#FFFFFF" d="M57.188,41.354v-2.608h0.355l1.373,2.049v-2.049h0.33v2.608h-0.355l-1.369-2.055v2.055
				H57.188z"/>
			<path display="inline" fill="#FFFFFF" d="M62.145,40.329v-0.311h1.104v0.972c-0.166,0.133-0.343,0.232-0.523,0.305
				c-0.18,0.063-0.361,0.102-0.555,0.102c-0.256,0-0.488-0.055-0.695-0.164c-0.211-0.106-0.367-0.271-0.477-0.475
				c-0.105-0.209-0.16-0.442-0.16-0.7c0-0.251,0.051-0.489,0.16-0.71c0.104-0.223,0.256-0.385,0.457-0.494
				c0.195-0.104,0.434-0.152,0.689-0.152c0.186,0,0.355,0.025,0.508,0.089c0.154,0.063,0.273,0.145,0.361,0.258
				c0.086,0.109,0.152,0.249,0.199,0.427l-0.314,0.085c-0.037-0.133-0.09-0.239-0.146-0.313c-0.062-0.077-0.146-0.138-0.25-0.185
				c-0.104-0.045-0.229-0.065-0.356-0.065c-0.156,0-0.297,0.021-0.412,0.07c-0.114,0.05-0.205,0.108-0.278,0.189
				c-0.065,0.076-0.123,0.163-0.164,0.257c-0.065,0.16-0.101,0.338-0.101,0.525c0,0.229,0.041,0.428,0.119,0.582
				c0.084,0.16,0.2,0.271,0.354,0.354c0.148,0.075,0.314,0.113,0.482,0.113c0.152,0,0.297-0.029,0.441-0.087
				c0.143-0.06,0.248-0.12,0.322-0.186V40.33L62.145,40.329L62.145,40.329z"/>
			<path display="inline" fill="#FFFFFF" d="M67.631,41.354v-1.104l-1.01-1.504h0.422l0.52,0.782
				c0.098,0.146,0.184,0.297,0.266,0.442c0.076-0.136,0.176-0.292,0.283-0.46l0.508-0.768h0.404l-1.045,1.504v1.104L67.631,41.354
				L67.631,41.354z"/>
			<path display="inline" fill="#FFFFFF" d="M70.32,40.082c0-0.436,0.115-0.773,0.352-1.021c0.229-0.248,0.531-0.369,0.898-0.369
				c0.238,0,0.46,0.059,0.65,0.173c0.197,0.115,0.342,0.277,0.441,0.48c0.104,0.206,0.152,0.439,0.152,0.704
				c0,0.264-0.051,0.499-0.16,0.708c-0.104,0.213-0.258,0.367-0.455,0.476c-0.193,0.106-0.406,0.161-0.635,0.161
				c-0.244,0-0.467-0.059-0.656-0.177c-0.193-0.118-0.342-0.283-0.441-0.487C70.369,40.528,70.32,40.307,70.32,40.082z
				 M70.676,40.086c0,0.313,0.086,0.562,0.254,0.744c0.17,0.18,0.381,0.271,0.637,0.271c0.262,0,0.477-0.093,0.646-0.271
				c0.168-0.187,0.252-0.441,0.252-0.781c0-0.211-0.033-0.397-0.109-0.556c-0.07-0.16-0.174-0.279-0.314-0.367
				c-0.137-0.091-0.293-0.132-0.465-0.132c-0.244,0-0.457,0.083-0.633,0.252C70.766,39.41,70.676,39.691,70.676,40.086z"/>
			<path display="inline" fill="#FFFFFF" d="M76.07,38.742h0.348v1.506c0,0.264-0.025,0.473-0.088,0.627
				c-0.063,0.151-0.166,0.28-0.319,0.379c-0.155,0.095-0.358,0.143-0.614,0.143c-0.242,0-0.441-0.041-0.602-0.127
				c-0.154-0.082-0.265-0.205-0.33-0.368c-0.066-0.154-0.101-0.376-0.101-0.65v-1.506h0.347v1.504c0,0.227,0.021,0.396,0.063,0.503
				c0.041,0.104,0.113,0.188,0.216,0.25c0.104,0.057,0.229,0.087,0.382,0.087c0.25,0,0.431-0.057,0.541-0.175
				c0.105-0.116,0.158-0.337,0.158-0.665V38.742L76.07,38.742z"/>
			<path display="inline" fill="#FFFFFF" d="M80.209,41.354v-2.608h1.764v0.307h-1.412v0.808h1.225v0.311h-1.225v1.188
				L80.209,41.354L80.209,41.354z"/>
			<path display="inline" fill="#FFFFFF" d="M83.525,41.354v-2.608h1.156c0.232,0,0.408,0.021,0.529,0.066
				c0.121,0.05,0.221,0.132,0.287,0.249c0.076,0.117,0.109,0.248,0.109,0.395c0,0.188-0.058,0.344-0.178,0.47
				c-0.117,0.125-0.309,0.209-0.557,0.242c0.092,0.041,0.158,0.086,0.205,0.131c0.104,0.094,0.195,0.208,0.291,0.347l0.451,0.712
				h-0.436l-0.348-0.544c-0.102-0.157-0.186-0.276-0.248-0.357c-0.064-0.084-0.127-0.146-0.174-0.181
				c-0.055-0.028-0.104-0.057-0.158-0.064c-0.041-0.007-0.107-0.013-0.193-0.013h-0.396v1.159L83.525,41.354L83.525,41.354z
				 M83.873,39.893h0.741c0.155,0,0.278-0.016,0.368-0.051c0.094-0.029,0.154-0.084,0.203-0.151
				c0.047-0.074,0.072-0.149,0.072-0.235c0-0.124-0.049-0.227-0.139-0.31c-0.092-0.079-0.229-0.113-0.426-0.113H83.87v0.86H83.873z"
				/>
			<path display="inline" fill="#FFFFFF" d="M87.254,41.354v-2.608h1.889v0.307h-1.539v0.801h1.439v0.308h-1.439v0.889h1.604v0.311
				h-1.951L87.254,41.354L87.254,41.354z"/>
			<path display="inline" fill="#FFFFFF" d="M90.783,41.354v-2.608h1.891v0.307H91.13v0.801h1.442v0.308H91.13v0.889h1.601v0.311
				h-1.946L90.783,41.354L90.783,41.354z"/>
		</g>
	</g>
</g>
</svg>
